<svg width="32" height="32" viewBox="0 0 32 32" fill="none" xmlns="http://www.w3.org/2000/svg">
<g clip-path="url(#clip0_16_218)">
<rect width="87" height="87" fill="#0D6EFD"/>
<path d="M6.15903 26.8506C7.74754 26.8506 9.04546 25.5404 9.04546 23.9369V5.16449H25.8992V23.9369C25.8992 25.5404 24.6012 26.8506 23.0127 26.8506" fill="white"/>
<path d="M20.1263 23.9369V21.7272H3.27261V23.9369C3.27261 25.5404 4.57054 26.8505 6.15905 26.8505H23.0128C21.4242 26.8505 20.1263 25.5404 20.1263 23.9369Z" fill="#C4C4C4"/>
<path d="M14.2179 8.89932H12.0676V9.83794H14.2179V8.89932Z" fill="#575757"/>
<path d="M22.4897 8.89932H15.8838V9.83794H22.4897V8.89932Z" fill="#575757"/>
<path d="M14.2179 12.2236H12.0676V13.1622H14.2179V12.2236Z" fill="#575757"/>
<path d="M22.4897 12.2236H15.8838V13.1622H22.4897V12.2236Z" fill="#575757"/>
<path d="M14.2179 15.548H12.0676V16.4866H14.2179V15.548Z" fill="#575757"/>
<path d="M22.4897 15.548H15.8838V16.4866H22.4897V15.548Z" fill="#575757"/>
<path d="M14.2179 18.8723H12.0676V19.8109H14.2179V18.8723Z" fill="#575757"/>
<path d="M22.4897 18.8723H15.8838V19.8109H22.4897V18.8723Z" fill="#575757"/>
</g>
<defs>
<clipPath id="clip0_16_218">
<rect width="32" height="32" fill="white"/>
</clipPath>
</defs>
</svg>
